<svg width="238" height="25" viewBox="0 0 238 25" fill="none" xmlns="http://www.w3.org/2000/svg">
<path d="M25.392 4.552H6.096V11.08H16.512V15.592H6.096V25H0.336V0.231998H25.392V4.552ZM53.8193 20.2C53.8193 22.12 53.4353 23.4 52.6673 24.04C51.8993 24.68 50.5233 25 48.5393 25H32.8433C30.8593 25 29.4833 24.696 28.7153 24.088C27.9473 23.448 27.5633 22.152 27.5633 20.2V9.496C27.5633 7.544 27.9473 6.264 28.7153 5.656C29.4833 5.016 30.8593 4.696 32.8433 4.696H48.5393C50.5233 4.696 51.8993 5.016 52.6673 5.656C53.4353 6.264 53.8193 7.544 53.8193 9.496V20.2ZM48.8752 21.112V8.44H32.5073V21.112H48.8752ZM87.5078 25H80.4038L71.9078 17.32H67.2518V25H62.3558V4.696H80.6438C83.8118 4.696 85.3958 6.008 85.3958 8.632V13.432C85.3958 15.416 84.5478 16.632 82.8518 17.08C82.2758 17.24 80.6118 17.32 77.8598 17.32L87.5078 25ZM80.7878 12.184V9.832C80.7878 8.744 80.0358 8.2 78.5318 8.2H67.2518V13.816H78.5318C80.0358 13.816 80.7878 13.272 80.7878 12.184ZM115.607 25H93.5745V4.696H115.367V8.296H98.5665V12.712H108.359V16.216H98.5665V21.208H115.607V25ZM145.578 20.2C145.578 22.12 145.178 23.4 144.378 24.04C143.61 24.68 142.234 25 140.25 25H127.578C125.594 25 124.218 24.68 123.45 24.04C122.682 23.4 122.298 22.12 122.298 20.2V9.496C122.298 7.576 122.682 6.296 123.45 5.656C124.218 5.016 125.594 4.696 127.578 4.696H140.25C142.778 4.696 144.346 5.224 144.954 6.28C145.37 6.984 145.578 8.712 145.578 11.464L140.586 12.184V8.44H127.242V21.112H140.586V16.792L145.578 17.8V20.2ZM178.746 25H173.178L170.634 20.536H157.194L154.65 25H149.706L161.754 4.696H166.506L178.746 25ZM168.618 16.84L163.866 8.392L159.306 16.84H168.618ZM207.089 20.2C207.089 22.12 206.705 23.4 205.937 24.04C205.169 24.68 203.793 25 201.809 25H188.609C186.433 25 184.993 24.648 184.289 23.944C183.617 23.208 183.281 21.768 183.281 19.624L187.697 18.808V21.208H202.625V16.552H189.473C187.489 16.552 186.129 16.248 185.393 15.64C184.561 14.968 184.145 13.672 184.145 11.752V9.496C184.145 7.576 184.561 6.28 185.393 5.608C186.129 5 187.489 4.696 189.473 4.696H201.521C203.569 4.696 204.961 5.016 205.697 5.656C206.465 6.296 206.849 7.608 206.849 9.592L202.577 10.504V8.344H188.609V12.616H201.809C203.793 12.616 205.169 12.936 205.937 13.576C206.705 14.184 207.089 15.464 207.089 17.416V20.2ZM237.573 8.344H227.733V25H222.789V8.344H212.997V4.696H237.573V8.344Z" fill="#D4D4D8"/>
</svg>
