<svg width="239" height="25" viewBox="0 0 239 25" fill="none" xmlns="http://www.w3.org/2000/svg">
<path d="M29.712 25H21.456L11.472 15.64H6V25H0.336V0.231998H21.552C25.264 0.231998 27.12 1.832 27.12 5.032V10.84C27.12 13.24 26.16 14.728 24.24 15.304C23.504 15.528 21.52 15.64 18.288 15.64L29.712 25ZM21.552 9.448V6.472C21.552 5.64 21.312 5.096 20.832 4.84C20.48 4.616 19.856 4.504 18.96 4.504H6V11.416H18.96C19.856 11.416 20.48 11.304 20.832 11.08C21.312 10.824 21.552 10.28 21.552 9.448ZM64.4044 25H38.8204V0.231998H64.1644V4.456H44.5804V9.976H56.0044V14.2H44.5804V20.344H64.4044V25ZM101.935 19.144C101.935 21.448 101.487 23 100.591 23.8C99.6948 24.6 98.0788 25 95.7428 25H80.4308C77.9028 25 76.2388 24.552 75.4388 23.656C74.6388 22.76 74.2388 21.032 74.2388 18.472L79.3268 17.416V20.344H96.8468V14.68H81.3907C79.0548 14.68 77.4388 14.28 76.5428 13.48C75.6788 12.68 75.2468 11.128 75.2468 8.824V6.088C75.2468 3.784 75.6788 2.232 76.5428 1.432C77.4388 0.631999 79.0548 0.231998 81.3907 0.231998H95.4548C97.8228 0.231998 99.4388 0.647999 100.303 1.48C101.167 2.28 101.599 3.848 101.599 6.184L96.5108 7.384V4.552H80.2868V9.88H95.7428C98.0788 9.88 99.6948 10.28 100.591 11.08C101.487 11.88 101.935 13.432 101.935 15.736V19.144ZM141.803 19.144C141.803 21.448 141.355 23 140.459 23.8C139.595 24.6 137.995 25 135.659 25H120.011C117.675 25 116.059 24.6 115.163 23.8C114.299 23 113.867 21.448 113.867 19.144V0.231998H119.627V20.344H136.043V0.231998H141.803V19.144ZM178.797 25H154.461V0.231998H160.221V20.344H178.797V25ZM204.405 4.648H192.981V25H187.221V4.648H175.845V0.231998H204.405V4.648ZM238.341 19.144C238.341 21.448 237.893 23 236.997 23.8C236.101 24.6 234.485 25 232.149 25H216.837C214.309 25 212.645 24.552 211.845 23.656C211.045 22.76 210.645 21.032 210.645 18.472L215.733 17.416V20.344H233.253V14.68H217.797C215.461 14.68 213.845 14.28 212.949 13.48C212.085 12.68 211.653 11.128 211.653 8.824V6.088C211.653 3.784 212.085 2.232 212.949 1.432C213.845 0.631999 215.461 0.231998 217.797 0.231998H231.861C234.229 0.231998 235.845 0.647999 236.709 1.48C237.573 2.28 238.005 3.848 238.005 6.184L232.917 7.384V4.552H216.693V9.88H232.149C234.485 9.88 236.101 10.28 236.997 11.08C237.893 11.88 238.341 13.432 238.341 15.736V19.144Z" fill="#D4D4D8"/>
</svg>
